<?xml version="1.0" encoding="utf-8"?>
<!-- Generator: Adobe Illustrator 18.1.1, SVG Export Plug-In . SVG Version: 6.00 Build 0)  -->
<svg version="1.1" id="Layer_1" xmlns="http://www.w3.org/2000/svg" xmlns:xlink="http://www.w3.org/1999/xlink" x="0px" y="0px"
	 viewBox="-8 10 32 32" enable-background="new -8 10 32 32" xml:space="preserve">
<g>
	<path id="path-1" fill="#FFFFFF" d="M8.3,19.5c1-1,2.3-1.5,3.6-1.5c1.4,0,2.7,0.5,3.6,1.5c1,1,1.5,2.3,1.5,3.6
		c0,1.4-0.5,2.7-1.5,3.6l-6.9,6.9c-0.3,0.3-0.8,0.3-1.1,0l-6.9-6.9c-2-2-2-5.2,0-7.2s5.2-2,7.2,0L8,19.8L8.3,19.5z M8,32l5.6-5.6
		l0.8-0.8c0.7-0.7,1-1.6,1-2.5c0-0.9-0.4-1.8-1-2.5c-0.7-0.7-1.6-1-2.5-1c-0.9,0-1.8,0.4-2.5,1l-0.8,0.8c-0.3,0.3-0.8,0.3-1.1,0
		l-0.8-0.8c-1.4-1.4-3.6-1.4-5,0s-1.4,3.6,0,5L8,32z"/>
</g>
<title>icon-fav-hover</title>
<desc>Created with Sketch.</desc>
<g id="GIFOS">
	<g id="_x30_0-UI-Kit" transform="translate(-858.000000, -2777.000000)">
		<g id="icon-fav-hover" transform="translate(858.000000, 2777.000000)">
			<path id="Rectangle-Copy-7" fill="#FFFFFF" d="M-2,10h20c3.3,0,6,2.7,6,6v20c0,3.3-2.7,6-6,6H-2c-3.3,0-6-2.7-6-6V16
				C-8,12.7-5.3,10-2,10z"/>
			<g>
				<path id="path-1_1_" fill="#572EE5" d="M8.3,19.5c1-1,2.3-1.5,3.6-1.5c1.4,0,2.7,0.5,3.6,1.5c1,1,1.5,2.3,1.5,3.6
					c0,1.4-0.5,2.7-1.5,3.6l-6.9,6.9c-0.3,0.3-0.8,0.3-1.1,0l-6.9-6.9c-2-2-2-5.2,0-7.2s5.2-2,7.2,0L8,19.8L8.3,19.5z"/>
			</g>
		</g>
	</g>
</g>
</svg>
