<?xml version="1.0" encoding="utf-8"?>
<!-- Generator: Adobe Illustrator 18.1.1, SVG Export Plug-In . SVG Version: 6.00 Build 0)  -->
<svg version="1.1" id="Layer_1" xmlns="http://www.w3.org/2000/svg" xmlns:xlink="http://www.w3.org/1999/xlink" x="0px" y="0px"
	 viewBox="-8 10 32 32" enable-background="new -8 10 32 32" xml:space="preserve">
<g>
	<path id="path-1" fill="#FFFFFF" d="M10,17c1.4,0,2.5,1.1,2.5,2.5l0,0l0,0.8l3.3,0c0.4,0,0.8,0.3,0.8,0.7l0,0.1
		c0,0.5-0.4,0.8-0.8,0.8l0,0H15l0,10.8c0,1.3-1,2.4-2.3,2.5l-0.2,0H4.2c-1.4,0-2.5-1.1-2.5-2.5l0,0l0-10.8H0.8
		c-0.4,0-0.8-0.3-0.8-0.7l0-0.1c0-0.5,0.4-0.8,0.8-0.8l0,0l3.3,0l0-0.8c0-1.3,1-2.4,2.3-2.5l0.2,0H10z M13.3,22h-10l0,10.8
		c0,0.4,0.3,0.8,0.7,0.8l0.1,0h8.3c0.5,0,0.8-0.4,0.8-0.8l0,0L13.3,22z M6.7,24.5c0.5,0,0.8,0.4,0.8,0.8l0,0v5
		c0,0.5-0.4,0.8-0.8,0.8c-0.5,0-0.8-0.4-0.8-0.8l0,0v-5C5.8,24.9,6.2,24.5,6.7,24.5z M10,24.5c0.5,0,0.8,0.4,0.8,0.8l0,0v5
		c0,0.5-0.4,0.8-0.8,0.8s-0.8-0.4-0.8-0.8l0,0v-5C9.2,24.9,9.5,24.5,10,24.5z M10,18.7H6.7c-0.5,0-0.8,0.4-0.8,0.8l0,0l0,0.8h5
		l0-0.8c0-0.4-0.3-0.8-0.7-0.8L10,18.7z"/>
</g>
<title>icon-trash-hover</title>
<desc>Created with Sketch.</desc>
<g id="GIFOS">
	<g id="_x30_0-UI-Kit" transform="translate(-858.000000, -2903.000000)">
		<g id="icon-trash-hover" transform="translate(858.000000, 2903.000000)">
			<path id="Rectangle-Copy-6" opacity="0.7" fill="#FFFFFF" d="M-2,10h20c3.3,0,6,2.7,6,6v20c0,3.3-2.7,6-6,6H-2c-3.3,0-6-2.7-6-6
				V16C-8,12.7-5.3,10-2,10z"/>
			<g id="Combined-Shape">
				<path id="path-1_1_" opacity="0.7" fill="#572EE5" d="M10,17c1.4,0,2.5,1.1,2.5,2.5l0,0l0,0.8l3.3,0c0.4,0,0.8,0.3,0.8,0.7
					l0,0.1c0,0.5-0.4,0.8-0.8,0.8l0,0H15l0,10.8c0,1.3-1,2.4-2.3,2.5l-0.2,0H4.2c-1.4,0-2.5-1.1-2.5-2.5l0,0l0-10.8H0.8
					c-0.4,0-0.8-0.3-0.8-0.7l0-0.1c0-0.5,0.4-0.8,0.8-0.8l0,0l3.3,0l0-0.8c0-1.3,1-2.4,2.3-2.5l0.2,0H10z M13.3,22h-10l0,10.8
					c0,0.4,0.3,0.8,0.7,0.8l0.1,0h8.3c0.5,0,0.8-0.4,0.8-0.8l0,0L13.3,22z M6.7,24.5c0.5,0,0.8,0.4,0.8,0.8l0,0v5
					c0,0.5-0.4,0.8-0.8,0.8c-0.5,0-0.8-0.4-0.8-0.8l0,0v-5C5.8,24.9,6.2,24.5,6.7,24.5z M10,24.5c0.5,0,0.8,0.4,0.8,0.8l0,0v5
					c0,0.5-0.4,0.8-0.8,0.8s-0.8-0.4-0.8-0.8l0,0v-5C9.2,24.9,9.5,24.5,10,24.5z M10,18.7H6.7c-0.5,0-0.8,0.4-0.8,0.8l0,0l0,0.8h5
					l0-0.8c0-0.4-0.3-0.8-0.7-0.8L10,18.7z"/>
			</g>
		</g>
	</g>
</g>
</svg>
